<svg xmlns="http://www.w3.org/2000/svg" viewBox="0 0 1143.86 420.88"><defs><style>.cls-1,.cls-2{fill:#fff;}.cls-2{font-size:200px;font-family:Montserrat-SemiBold, Montserrat;font-weight:600;}</style></defs><g id="Objects"><path class="cls-1" d="M1176.54,792.67a222.72,222.72,0,0,0-10.17-128.46C1121.55,549,991.38,491.88,876.2,536.7,769.77,578.13,712.45,693,740.47,801.56c1.15,4.45,2.46,9.19,4,13.65l13.25-5.16c42.3-16.42,66-27.22,108-32.63,129-17.2,244.22,50.07,306.45,32.1C1173.91,803.93,1175.31,798.35,1176.54,792.67Zm-127.26-12.32a91.3,91.3,0,0,0-3.82-26.71c65-42.85,59.6-39.55,61.38-40.25-1.74.91,4.87-1.18-70,20a92.16,92.16,0,0,0-20-23.74c10.85-24.41,10.41-23.41,21.64-48.71,6.47-14.56,6-14.73,7.91-17.34-1.19,2.08,3.17-3.28-47.72,54a91,91,0,0,0-30.28-9.16c-11.75-75.71-10.92-68.92-10.82-71,.1,2,.92-4.72-10.82,70.91a89.45,89.45,0,0,0-30.32,9.16c-51.61-58.11-46.56-52-47.68-54,1.85,2.58,1.47,2.84,7.91,17.34,10.42,23.47,9.59,21.6,21.64,48.71a93.47,93.47,0,0,0-20,23.76c-74.13-20.92-68.37-19.08-70.09-20,1.81.72-4.48-3.18,61.29,40.19a89.83,89.83,0,0,0-2.28,9.25c-45.74,5.42-71.85,17.33-113.37,33.53-25.4-101.59,28.65-207.92,127.56-246.42,107.93-42,229.8,11.57,271.77,119.42,16.9,43.42,18.12,89.64,7.65,128C1129,802.16,1078.5,786.7,1049.28,780.35Zm93.74,90.7a157.89,157.89,0,0,1-9.46,13c-83-11.8-201-64.85-327.6-15.58l-28.15,11c-3-3.81-5.82-7.9-8.42-12l31.42-12.22C935.76,802.74,1058.55,861.07,1143,871.05Zm-59.88,60a177.88,177.88,0,0,1-18.48,11.26c-59.64-12-122.39-43.11-209.66-9.15l-12.26,4.78q-7.51-4.39-14.69-9.53l16.07-6.25c70.25-27.35,117.22-21.62,189.84-2C1048.12,923.83,1067.69,929.32,1083.14,931Z" transform="translate(-733.4 -521.42)"/><text class="cls-2" transform="translate(540.27 269.54)">SOLIS</text></g></svg>