<svg id="Camada_1" data-name="Camada 1" xmlns="http://www.w3.org/2000/svg" viewBox="0 0 1530.44 1396.76"><defs><style>.cls-1{fill:#fff;}.cls-2{fill:#013f3a;}</style></defs><rect class="cls-1" width="1530.44" height="1396.76"/><path class="cls-2" d="M1422.62,880.88a669.31,669.31,0,0,0-30.5-385.6c-134.6-345.7-525.3-517.3-871-382.7-319.5,124.3-491.6,469-407.3,795,3.4,13.3,7.4,27.6,11.9,41l39.8-15.4c126.9-49.3,198-81.7,324.3-98,387.4-51.6,733.1,150.3,919.9,96.4C1414.82,914.68,1418.92,898.08,1422.62,880.88Zm-381.9-37a272,272,0,0,0-11.5-80.2c195-128.6,178.9-118.7,184.3-120.8-5.2,2.7,14.6-3.5-210.2,59.9a276,276,0,0,0-60.2-71.2c32.5-73.3,31.2-70.3,65-146.2,19.4-43.7,18.1-44.2,23.8-52.1-3.6,6.2,9.5-9.8-143.3,162.2a273.59,273.59,0,0,0-90.9-27.5c-35.2-227.3-32.8-207-32.5-213,.3,6.1,2.8-14.2-32.5,212.8a268.87,268.87,0,0,0-91,27.5c-154.9-174.5-139.8-156.2-143.1-162.1,5.6,7.8,4.4,8.5,23.7,52.1,31.3,70.5,28.8,64.8,65,146.2a283.12,283.12,0,0,0-60,71.3c-222.5-62.8-205.2-57.2-210.4-59.9,5.4,2.2-13.4-9.6,184,120.6a239.76,239.76,0,0,0-6.8,27.8c-137.3,16.3-215.7,52-340.3,100.6-76.2-304.9,86-624.1,382.9-739.7,324-126.1,689.8,34.7,815.8,358.4,50.6,130.3,54.4,269.1,22.9,384.3C1280,909.38,1128.42,863,1040.72,843.88Zm281.3,272.3a475.12,475.12,0,0,1-28.4,39.1c-249.1-35.4-603.3-194.7-983.3-46.8l-84.5,32.9c-9-11.4-17.5-23.7-25.3-35.9l94.3-36.7C699.92,911.08,1068.52,1086.18,1322,1116.18Zm-179.7,180.1a523.26,523.26,0,0,1-55.5,33.8c-179-36-367.4-129.4-629.3-27.5l-36.8,14.3q-22.5-13.2-44-28.6l48.2-18.8c210.9-82.1,351.9-64.9,569.8-6.1C1037.22,1274.58,1096,1291.08,1142.32,1296.28Z"/></svg>